# xmcd CD database file
#
# Track frame offsets:
#	150
#	30650
#	44442
#	62650
#	81540
#	96202
#	121332
#	146252
#	159197
#	174287
#	198322
#
# Disc length: 2929 seconds
#
# Revision: 0
# Processed by: cddbd v1.4PL0 Copyright (c) Steve Scherf et al.
# Submitted via: CDex 1.50beta10
#
DISCID=8a0b6f0b
DTITLE=Andrew 'Jr Boy' Jones - I Need Time
DYEAR=1997
DGENRE=Blues
TTITLE0=I Need Time
TTITLE1=I Got A Stick
TTITLE2=Hoochie Mama
TTITLE3=These Bills
TTITLE4=Big Leg, Heavy Bottom
TTITLE5=Blues Joint
TTITLE6=I'm With You
TTITLE7=Jr. Boy's Jam
TTITLE8=You're A Dog
TTITLE9=Gotta Be Foolin' You
TTITLE10=Tribute To Freddie
EXTD=YEAR: 1997
EXTT0=
EXTT1=
EXTT2=
EXTT3=
EXTT4=
EXTT5=
EXTT6=
EXTT7=
EXTT8=
EXTT9=
EXTT10=
PLAYORDER=
